<svg xmlns="http://www.w3.org/2000/svg" width="88" height="89" viewBox="0 0 88 89" fill="none">
  <g filter="url(#filter0_d_616_93)">
    <path d="M84 40.5C84 62.8675 66.0914 81 44 81C21.9086 81 4 62.8675 4 40.5C4 18.1325 21.9086 0 44 0C66.0914 0 84 18.1325 84 40.5Z" fill="white"/>
    <path fill-rule="evenodd" clip-rule="evenodd" d="M43.9043 0C21.8686 0 4 18.132 4 40.5C4 58.3942 15.4338 73.5753 31.289 78.9303C33.2832 79.305 34.0154 78.052 34.0154 76.9822C34.0154 76.0161 33.9784 72.8259 33.9612 69.4421C22.8598 71.8916 20.5173 64.6631 20.5173 64.6631C18.7021 59.9824 16.0866 58.7376 16.0866 58.7376C12.4662 56.2239 16.3596 56.2754 16.3596 56.2754C20.3666 56.5602 22.4765 60.4498 22.4765 60.4498C26.0356 66.6403 31.8117 64.8502 34.0888 63.8155C34.4469 61.1981 35.481 59.4107 36.6223 58.4002C27.759 57.3759 18.4417 53.9032 18.4417 38.3847C18.4417 33.9631 20.0005 30.3502 22.5532 27.514C22.1389 26.4933 20.773 22.3747 22.9398 16.7961C22.9398 16.7961 26.2907 15.7076 33.9163 20.9475C37.0993 20.0501 40.513 19.6001 43.9043 19.5847C47.2955 19.6001 50.7118 20.0501 53.9008 20.9475C61.5173 15.7076 64.8632 16.7961 64.8632 16.7961C67.0357 22.3747 65.6692 26.4933 65.2546 27.514C67.813 30.3502 69.3616 33.9631 69.3616 38.3847C69.3616 53.9401 60.0265 57.365 51.1406 58.3678C52.5719 59.6247 53.8472 62.0896 53.8472 65.8679C53.8472 71.2871 53.801 75.648 53.801 76.9822C53.801 78.0597 54.5193 79.3226 56.542 78.9248C72.3886 73.5638 83.8076 58.3881 83.8076 40.5C83.8076 18.132 65.9416 0 43.9043 0Z" fill="#1B1817"/>
    <path d="M19.1138 58.1489C19.0259 58.3508 18.714 58.4106 18.4298 58.2724C18.1404 58.1407 17.9778 57.8664 18.0717 57.6645C18.1576 57.4577 18.4702 57.4001 18.7589 57.5378C19.049 57.6705 19.2142 57.9476 19.1138 58.1489Z" fill="#1B1817"/>
    <path d="M20.73 59.9786C20.5397 60.158 20.1677 60.0746 19.9152 59.7915C19.6543 59.5095 19.6054 59.1315 19.7983 58.9499C19.9945 58.7716 20.3554 58.8555 20.617 59.137C20.8781 59.4228 20.9289 59.7975 20.73 59.9786Z" fill="#1B1817"/>
    <path d="M22.3034 62.3113C22.0589 62.4835 21.6591 62.3222 21.412 61.9618C21.1675 61.6019 21.1675 61.1696 21.4173 60.9968C21.6651 60.824 22.0589 60.9798 22.3094 61.3369C22.5532 61.7028 22.5532 62.1351 22.3034 62.3113Z" fill="#1B1817"/>
    <path d="M24.4589 64.5649C24.2402 64.8096 23.7743 64.7438 23.4334 64.4097C23.0845 64.0833 22.9874 63.6197 23.2067 63.375C23.4281 63.1298 23.8966 63.1989 24.2402 63.5297C24.5864 63.8561 24.6922 64.3225 24.4589 64.5649Z" fill="#1B1817"/>
    <path d="M27.4324 65.8734C27.3359 66.1905 26.8872 66.3348 26.4352 66.1998C25.9839 66.061 25.6885 65.6896 25.7798 65.3687C25.8736 65.0494 26.3243 64.8996 26.7795 65.0433C27.2302 65.1816 27.5263 65.5508 27.4324 65.8734Z" fill="#1B1817"/>
    <path d="M30.6982 66.1159C30.7095 66.45 30.3262 66.727 29.8517 66.7331C29.3746 66.7435 28.9887 66.4736 28.9835 66.1449C28.9835 65.8075 29.3581 65.5332 29.8352 65.525C30.3097 65.5157 30.6982 65.784 30.6982 66.1159Z" fill="#1B1817"/>
    <path d="M33.7371 65.5909C33.7939 65.9167 33.4642 66.2514 32.9931 66.3408C32.5298 66.4264 32.101 66.2256 32.0422 65.9019C31.9847 65.5678 32.3204 65.2332 32.783 65.147C33.2548 65.0636 33.677 65.2595 33.7371 65.5909Z" fill="#1B1817"/>
  </g>
  <defs>
    <filter id="filter0_d_616_93" x="0" y="0" width="88" height="89" filterUnits="userSpaceOnUse" color-interpolation-filters="sRGB">
      <feFlood flood-opacity="0" result="BackgroundImageFix"/>
      <feColorMatrix in="SourceAlpha" type="matrix" values="0 0 0 0 0 0 0 0 0 0 0 0 0 0 0 0 0 0 127 0" result="hardAlpha"/>
      <feOffset dy="4"/>
      <feGaussianBlur stdDeviation="2"/>
      <feComposite in2="hardAlpha" operator="out"/>
      <feColorMatrix type="matrix" values="0 0 0 0 0 0 0 0 0 0 0 0 0 0 0 0 0 0 0.25 0"/>
      <feBlend mode="normal" in2="BackgroundImageFix" result="effect1_dropShadow_616_93"/>
      <feBlend mode="normal" in="SourceGraphic" in2="effect1_dropShadow_616_93" result="shape"/>
    </filter>
  </defs>
</svg>