<svg xmlns="http://www.w3.org/2000/svg" width="94" height="79" viewBox="0 0 94 79" fill="none">
<rect x="4" y="6" width="73" height="64" fill="white"/>
<mask id="mask0_616_69" style="mask-type:luminance" maskUnits="userSpaceOnUse" x="0" y="0" width="94" height="79">
<path d="M93.9472 0H0V79H93.9472V0Z" fill="white"/>
</mask>
<g mask="url(#mask0_616_69)">
<path d="M89.3365 73.9001C89.5384 73.9023 89.7381 73.8633 89.9238 73.786C90.1096 73.7086 90.277 73.5945 90.4161 73.4508C90.5551 73.3065 90.663 73.1364 90.7326 72.9493C90.8021 72.7628 90.8316 72.5642 90.8199 72.3656C90.8199 71.2772 90.1547 70.7571 88.7886 70.7571H86.5815V76.4555H87.412V73.9714H88.4315L88.4549 74.0021L90.0379 76.4555H90.9256L89.2224 73.916L89.3365 73.9001ZM88.3764 73.3295H87.4142V71.4033H88.634C89.2642 71.4033 89.9828 71.5048 89.9828 72.3184C89.9828 73.2544 89.2558 73.3295 88.3714 73.3295" fill="#0A66C2"/>
<path d="M67.6841 66.7593H55.9136V48.5784C55.9136 44.243 55.8351 38.662 49.7919 38.662C43.6616 38.662 42.7236 43.3856 42.7236 48.2627V66.7582H30.9532V29.3707H42.2527V34.4801H42.4109C43.5418 32.5731 45.1758 31.0042 47.1391 29.9407C49.1023 28.8772 51.3214 28.3588 53.5597 28.4408C65.4893 28.4408 67.6891 36.1804 67.6891 46.2492L67.6841 66.7593ZM17.6724 24.2602C16.3215 24.2604 15.0008 23.8655 13.8774 23.1254C12.7539 22.3853 11.8783 21.3333 11.3611 20.1023C10.844 18.8714 10.7084 17.5168 10.9717 16.2099C11.235 14.903 11.8853 13.7024 12.8405 12.7601C13.7956 11.8177 15.0125 11.1758 16.3374 10.9156C17.6624 10.6554 19.0357 10.7886 20.2839 11.2983C21.5321 11.808 22.5991 12.6713 23.3498 13.7791C24.1006 14.8869 24.5014 16.1894 24.5017 17.5218C24.5018 18.4066 24.3253 19.2827 23.9821 20.1001C23.639 20.9176 23.1361 21.6603 22.502 22.286C21.8678 22.9118 21.1149 23.4082 20.2862 23.7469C19.4575 24.0856 18.5694 24.26 17.6724 24.2602ZM23.5575 66.7593H11.775V29.3707H23.5575V66.7593ZM73.5522 0.00484986H5.86039C4.32401 -0.0122515 2.84349 0.572982 1.74434 1.63195C0.645175 2.69092 0.0172862 4.13697 -0.00146484 5.65236V72.6958C0.0166444 74.2122 0.644162 75.6589 1.74328 76.7193C2.84241 77.7793 4.32324 78.3657 5.86039 78.3493H73.5522C75.0923 78.3685 76.5774 77.7836 77.681 76.7237C78.7839 75.6638 79.4158 74.2149 79.4375 72.6958V5.64754C79.4152 4.12913 78.7828 2.68143 77.6798 1.62249C76.5763 0.563546 75.0918 -0.0200153 73.5522 1.06214e-05" fill="#0A66C2"/>
<path d="M88.477 68.2188C87.0453 68.2325 85.6765 68.8047 84.6714 69.8108C83.6658 70.817 83.1057 72.1748 83.1124 73.5875C83.1196 74.9996 83.6931 76.3519 84.7081 77.3482C85.7232 78.345 87.0971 78.904 88.5293 78.904C89.9616 78.904 91.3349 78.345 92.35 77.3482C93.365 76.3519 93.9391 74.9996 93.9457 73.5875C93.953 72.1748 93.3923 70.817 92.3872 69.8108C91.3816 68.8047 90.0133 68.2325 88.5811 68.2188H88.477ZM88.477 78.2924C87.5376 78.3083 86.6148 78.0482 85.8256 77.5462C85.0358 77.0448 84.4145 76.3228 84.0407 75.473C83.6669 74.6227 83.5568 73.6824 83.7248 72.7711C83.8927 71.8593 84.331 71.0172 84.984 70.3512C85.637 69.6852 86.4758 69.2249 87.3941 69.029C88.3124 68.8332 89.2685 68.9105 90.1423 69.2507C91.0162 69.5908 91.7682 70.1795 92.3027 70.941C92.8378 71.703 93.1314 72.6038 93.147 73.5304C93.147 73.5567 93.147 73.5825 93.147 73.6089C93.1737 74.824 92.7093 76.0003 91.8566 76.878C91.0045 77.7558 89.8331 78.2638 88.6011 78.2901H88.4782" fill="#0A66C2"/>
</g>
</svg>