<svg width="839" height="839" viewBox="0 0 839 839" fill="none" xmlns="http://www.w3.org/2000/svg">
<path d="M419.5 836C649.527 836 836 649.527 836 419.5C836 189.473 649.527 3 419.5 3C189.473 3 3 189.473 3 419.5C3 649.527 189.473 836 419.5 836Z" stroke="#FFC555" stroke-width="5" stroke-linecap="round" stroke-linejoin="round"/>
<path d="M419.5 802.854C631.22 802.854 802.853 631.221 802.853 419.501C802.853 207.781 631.22 36.1475 419.5 36.1475C207.78 36.1475 36.147 207.781 36.147 419.501C36.147 631.221 207.78 802.854 419.5 802.854Z" stroke="#FFC555" stroke-width="5" stroke-linecap="round" stroke-linejoin="round"/>
<path d="M419.5 769.694C612.907 769.694 769.694 612.907 769.694 419.5C769.694 226.093 612.907 69.3057 419.5 69.3057C226.093 69.3057 69.3057 226.093 69.3057 419.5C69.3057 612.907 226.093 769.694 419.5 769.694Z" stroke="#FFC555" stroke-width="5" stroke-linecap="round" stroke-linejoin="round"/>
<path d="M419.5 736.547C594.601 736.547 736.548 594.6 736.548 419.5C736.548 244.399 594.601 102.452 419.5 102.452C244.4 102.452 102.453 244.399 102.453 419.5C102.453 594.6 244.4 736.547 419.5 736.547Z" stroke="#FFC555" stroke-width="5" stroke-linecap="round" stroke-linejoin="round"/>
<path d="M419.501 703.388C576.288 703.388 703.389 576.287 703.389 419.5C703.389 262.712 576.288 135.611 419.501 135.611C262.713 135.611 135.612 262.712 135.612 419.5C135.612 576.287 262.713 703.388 419.501 703.388Z" stroke="#FFC555" stroke-width="5" stroke-linecap="round" stroke-linejoin="round"/>
<path d="M419.5 670.241C557.981 670.241 670.242 557.98 670.242 419.499C670.242 281.019 557.981 168.758 419.5 168.758C281.019 168.758 168.758 281.019 168.758 419.499C168.758 557.98 281.019 670.241 419.5 670.241Z" stroke="#FFC555" stroke-width="5" stroke-linecap="round" stroke-linejoin="round"/>
<path d="M419.5 637.082C539.668 637.082 637.083 539.667 637.083 419.5C637.083 299.332 539.668 201.917 419.5 201.917C299.333 201.917 201.917 299.332 201.917 419.5C201.917 539.667 299.333 637.082 419.5 637.082Z" stroke="#FFC555" stroke-width="5" stroke-linecap="round" stroke-linejoin="round"/>
<path d="M419.5 603.936C521.361 603.936 603.936 521.361 603.936 419.5C603.936 317.639 521.361 235.064 419.5 235.064C317.639 235.064 235.064 317.639 235.064 419.5C235.064 521.361 317.639 603.936 419.5 603.936Z" stroke="#FFC555" stroke-width="5" stroke-linecap="round" stroke-linejoin="round"/>
<path d="M419.5 570.776C503.048 570.776 570.777 503.047 570.777 419.499C570.777 335.952 503.048 268.223 419.5 268.223C335.952 268.223 268.223 335.952 268.223 419.499C268.223 503.047 335.952 570.776 419.5 570.776Z" stroke="#FFC555" stroke-width="5" stroke-linecap="round" stroke-linejoin="round"/>
<path d="M419.5 537.629C484.742 537.629 537.63 484.741 537.63 419.499C537.63 354.258 484.742 301.369 419.5 301.369C354.259 301.369 301.37 354.258 301.37 419.499C301.37 484.741 354.259 537.629 419.5 537.629Z" stroke="#FFC555" stroke-width="5" stroke-linecap="round" stroke-linejoin="round"/>
<path d="M419.5 504.471C466.428 504.471 504.471 466.428 504.471 419.5C504.471 372.572 466.428 334.529 419.5 334.529C372.572 334.529 334.529 372.572 334.529 419.5C334.529 466.428 372.572 504.471 419.5 504.471Z" stroke="#FFC555" stroke-width="5" stroke-linecap="round" stroke-linejoin="round"/>
<path d="M419.5 471.324C448.122 471.324 471.324 448.122 471.324 419.5C471.324 390.878 448.122 367.676 419.5 367.676C390.878 367.676 367.676 390.878 367.676 419.5C367.676 448.122 390.878 471.324 419.5 471.324Z" stroke="#FFC555" stroke-width="5" stroke-linecap="round" stroke-linejoin="round"/>
</svg>
